<svg xmlns="http://www.w3.org/2000/svg" viewBox="0 0 1200 500"><defs><linearGradient id="sky" x2="0" y2="1"><stop stop-color="#041d3b"/><stop offset=".58" stop-color="#031224"/><stop offset="1" stop-color="#01070f"/></linearGradient><radialGradient id="glow"><stop stop-color="#9ffaff" stop-opacity=".95"/><stop offset=".18" stop-color="#2fdfff" stop-opacity=".35"/><stop offset="1" stop-color="#0ad" stop-opacity="0"/></radialGradient><linearGradient id="field" x2="0" y2="1"><stop stop-color="#073e57"/><stop offset="1" stop-color="#01191f"/></linearGradient></defs><rect width="1200" height="500" fill="url(#sky)"/><g opacity=".9"><ellipse cx="120" cy="85" rx="230" ry="95" fill="url(#glow)"/><ellipse cx="1080" cy="90" rx="230" ry="95" fill="url(#glow)"/></g><path d="M0 260 Q180 170 350 250 T700 240 T1200 250 V380 H0Z" fill="#061a2c"/><g fill="#0b2d46" opacity=".95"><rect x="0" y="250" width="105" height="110" rx="5"/><rect x="120" y="250" width="105" height="110" rx="5"/><rect x="240" y="250" width="105" height="110" rx="5"/><rect x="360" y="250" width="105" height="110" rx="5"/><rect x="480" y="250" width="105" height="110" rx="5"/><rect x="600" y="250" width="105" height="110" rx="5"/><rect x="720" y="250" width="105" height="110" rx="5"/><rect x="840" y="250" width="105" height="110" rx="5"/><rect x="960" y="250" width="105" height="110" rx="5"/><rect x="1080" y="250" width="105" height="110" rx="5"/></g><g fill="#b8faff"><circle cx="70" cy="125" r="3"/><circle cx="115" cy="118" r="2"/><circle cx="1080" cy="126" r="3"/><circle cx="1130" cy="117" r="2"/><circle cx="590" cy="90" r="2"/></g><path d="M0 365 Q600 290 1200 365 V500 H0Z" fill="url(#field)"/><path d="M250 500 Q600 350 950 500" fill="none" stroke="#1aa5c7" stroke-opacity=".35" stroke-width="5"/><path d="M390 500 Q600 390 810 500" fill="none" stroke="#7df7ff" stroke-opacity=".18" stroke-width="2"/></svg>